<?xml version="1.0" standalone="no"?><!DOCTYPE svg PUBLIC "-//W3C//DTD SVG 1.1//EN" "http://www.w3.org/Graphics/SVG/1.1/DTD/svg11.dtd"><svg t="1614418488174" class="icon" viewBox="0 0 1024 1024" version="1.1" xmlns="http://www.w3.org/2000/svg" p-id="2031" xmlns:xlink="http://www.w3.org/1999/xlink" width="200" height="200"><defs><style type="text/css"></style></defs><path d="M949.976076 246.483764c5.836939-5.78168 9.454326-13.800307 9.454326-22.664186 0-17.620309-14.284331-31.904641-31.904641-31.904641-9.428743 0-17.899672 4.093225-23.740704 10.595312L399.304312 737.755674c-1.939165 1.822508-6.519484 5.236258-13.672394 5.236258-7.782244 0-12.784164-4.322445-14.492062-6.071276L118.575606 457.151811l-0.128937 0.128937c-5.773494-5.773494-13.750165-9.344832-22.559808-9.344832-17.620309 0-31.904641 14.284331-31.904641 31.904641 0 8.961092 3.699252 17.054421 9.647731 22.849404l287.023062 317.792856 0 0c5.850242 6.773264 14.495132 11.06501 24.146956 11.06501 8.273431 0 15.811104-3.149736 21.48022-8.315386l0 0 0.004093-0.004093c1.182942-1.077541 2.28095-2.246157 3.289929-3.488451l540.513404-573.145615L949.976076 246.483764z" p-id="2032"></path></svg>