<?xml version="1.0" standalone="no"?><!DOCTYPE svg PUBLIC "-//W3C//DTD SVG 1.1//EN" "http://www.w3.org/Graphics/SVG/1.1/DTD/svg11.dtd"><svg t="1614354582620" class="icon" viewBox="0 0 1024 1024" version="1.1" xmlns="http://www.w3.org/2000/svg" p-id="2167" xmlns:xlink="http://www.w3.org/1999/xlink" width="200" height="200"><defs><style type="text/css"></style></defs><path d="M316.586667 663.04a42.666667 42.666667 0 0 0 0 60.16 42.666667 42.666667 0 0 0 60.586666 0 42.666667 42.666667 0 0 0 0-60.16 42.666667 42.666667 0 0 0-60.586666 0z m0-362.24a42.666667 42.666667 0 0 0 0 60.16 42.666667 42.666667 0 0 0 60.586666 0 42.666667 42.666667 0 0 0 0-60.16 42.666667 42.666667 0 0 0-60.586666 0z m211.2 426.666667a42.666667 42.666667 0 1 0 42.666666 42.666666 42.666667 42.666667 0 0 0-42.666666-44.8z m-256-256a42.666667 42.666667 0 1 0 42.666666 42.666666 42.666667 42.666667 0 0 0-42.666666-44.8z m256-256a42.666667 42.666667 0 1 0 42.666666 42.666666 42.666667 42.666667 0 0 0-42.666666-44.8z m151.04 87.466666a42.666667 42.666667 0 1 0 60.16 0 42.666667 42.666667 0 0 0-60.16-2.133333z m268.8 0a469.333333 469.333333 0 1 0-334.933334 671.573334 165.12 165.12 0 0 0 106.666667-70.4 179.2 179.2 0 0 0 26.026667-136.106667 241.066667 241.066667 0 0 1-4.266667-42.666667 213.333333 213.333333 0 0 1 128-194.56 163.84 163.84 0 0 0 87.893333-96 170.666667 170.666667 0 0 0-9.386666-132.693333z m-72.533334 104.106667a81.066667 81.066667 0 0 1-42.666666 46.506667A298.666667 298.666667 0 0 0 655.786667 725.333333a311.466667 311.466667 0 0 0 5.973333 59.733334 92.16 92.16 0 0 1-13.226667 70.4 76.373333 76.373333 0 0 1-51.626666 34.133333 372.053333 372.053333 0 0 1-69.12 6.4 384 384 0 0 1-384-395.946667A386.133333 386.133333 0 0 1 505.6 128h21.76a384 384 0 0 1 343.893333 213.333333 85.333333 85.333333 0 0 1 3.84 64.853334zM527.786667 469.333333a42.666667 42.666667 0 1 0 42.666666 42.666667 42.666667 42.666667 0 0 0-42.666666-42.666667z" p-id="2168"></path></svg>